# xmcd
#
# Track frame offsets: 
#        150
#        13490
#        27615
#        42400
#        54727
#        68120
#        80510
#        92747
#        104465
#        118100
#        131192
#        143945
#
# Disc length: 2094 seconds
#
# Revision: 4
# Processed by: cddbd v1.5.2PL0 Copyright (c) Steve Scherf et al.
# Submitted via: ExactAudioCopyFreeDBPlugin 1.0
#
DISCID=b7082c0c
DTITLE=Muddy Waters - The Real Folk Blues
DYEAR=1897
DGENRE=Blues
TTITLE0=Mannish Boy
TTITLE1=Screamin' and Cryin'
TTITLE2=Just To Be With You
TTITLE3=Walking in the park
TTITLE4=Walking Blues
TTITLE5=Canary Bird
TTITLE6=Same Thing
TTITLE7=Gypsy Woman
TTITLE8=Rollin' and Tumblin'
TTITLE9=40 Days and Forty Nights
TTITLE10=Little Geneva
TTITLE11=You Can't Lose What You Never Had
EXTD=
EXTT0=
EXTT1=
EXTT2=
EXTT3=
EXTT4=
EXTT5=
EXTT6=
EXTT7=
EXTT8=
EXTT9=
EXTT10=
EXTT11=
PLAYORDER=
